Title: Paranormal Activity 3 2011 TS XviD - VISUALiSE
Format: Xvid
Language: English
Subtitles: No
Sample: No
Imdb: http://www.imdb.com/title/tt1778304/



Sources:
Video - Relizlab Files - As Always Many Thanks   
Audio - MiSTERE - You Know Already Big Thanks 



Video
Format                           : AVI
Format/Info                      : Audio Video Interleave
File size                        : 1.08 GiB
Duration                         : 1h 18mn
Overall bit rate                 : 1 960 Kbps

ID                               : 0
Format                           : MPEG-4 Visual
Format profile                   : Advanced Simple@L5
Format settings, BVOP            : 2
Format settings, QPel            : No
Format settings, GMC             : No warppoints
Format settings, Matrix          : Default (H.263)
Codec ID                         : XVID
Codec ID/Hint                    : XviD
Duration                         : 1h 18mn
Bit rate                         : 1 822 Kbps
Width                            : 720 pixels
Height                           : 384 pixels
Display aspect ratio             : 1.875
Frame rate                       : 25.000 fps
Color space                      : YUV
Chroma subsampling               : 4:2:0
Bit depth                        : 8 bits
Scan type                        : Progressive
Compression mode                 : Lossy
Bits/(Pixel*Frame)               : 0.264
Stream size                      : 1 024 MiB (93%)

Audio:
ID                               : 1
Format                           : MPEG Audio
Format version                   : Version 1
Format profile                   : Layer 3
Mode                             : Joint stereo
Mode extension                   : MS Stereo
Codec ID                         : 55
Codec ID/Hint                    : MP3
Duration                         : 1h 18mn
Bit rate mode                    : Constant
Bit rate                         : 128 Kbps
Channel(s)                       : 2 channels
Sampling rate                    : 44.1 KHz
Compression mode                 : Lossy
Stream size                      : 71.9 MiB (7%)
Alignment                        : Aligned on interleaves
Interleave, duration             : 40 ms (1.00 video frame)
Writing library                  : LAME3.98r


[img]http://img9.imageshack.us/img9/863/70658076.png[/img]
[img]http://img841.imageshack.us/img841/9819/67009756.png[/img]
[img]http://img708.imageshack.us/img708/3789/19458933.png[/img]
[img]http://img64.imageshack.us/img64/1646/46555678.png[/img]	



OK AS BEING AS IM GETTING HOUNDED BY SoftWarez And TheLeak im going to put on all of my torrent that this is not my torrent im just uploading it as thats what i thought TPB was ( A SHARE SITE ) 

PLEASE SEED & ENJOY :)




 